<svg width="309" height="49" viewBox="0 0 309 49" fill="none" xmlns="http://www.w3.org/2000/svg">
<path d="M59.9606 17.5539C59.027 17.5539 58.0954 17.6447 57.1805 17.8256C56.4906 14.46 54.2602 11.589 51.1286 10.0351C47.9977 8.48113 44.3102 8.41595 41.1232 9.85782C38.239 2.09231 29.4607 -1.91715 21.5161 0.902017C13.5716 3.72119 9.4697 12.3024 12.3539 20.0673C5.39461 20.2823 -0.10262 25.9127 0.00145363 32.7176C0.106151 39.5231 5.77414 44.989 12.7371 45H59.9606C67.7138 45 74 38.8561 74 31.2769C74 23.6978 67.7138 17.5539 59.9606 17.5539V17.5539Z" fill="url(#paint0_linear)" fill-opacity="0.97"/>
<path d="M107.12 31.52H91.52L88.16 39H85.08L97.88 11H100.8L113.6 39H110.48L107.12 31.52ZM106.04 29.12L99.32 14.08L92.6 29.12H106.04ZM147.312 11V39H144.472V16.6L133.472 35.44H132.072L121.072 16.72V39H118.232V11H120.672L132.832 31.76L144.872 11H147.312ZM174.075 24.56C175.915 24.96 177.328 25.76 178.315 26.96C179.328 28.1333 179.835 29.6533 179.835 31.52C179.835 33.92 178.942 35.7733 177.155 37.08C175.395 38.36 172.782 39 169.315 39H156.435V11H168.515C171.635 11 174.048 11.6267 175.755 12.88C177.488 14.1333 178.355 15.9067 178.355 18.2C178.355 19.7467 177.968 21.0667 177.195 22.16C176.448 23.2267 175.408 24.0267 174.075 24.56ZM159.395 13.44V23.6H168.315C170.582 23.6 172.328 23.1733 173.555 22.32C174.782 21.44 175.395 20.1733 175.395 18.52C175.395 16.8667 174.782 15.6133 173.555 14.76C172.328 13.88 170.582 13.44 168.315 13.44H159.395ZM169.275 36.56C171.782 36.56 173.675 36.1333 174.955 35.28C176.235 34.4267 176.875 33.0933 176.875 31.28C176.875 27.7867 174.342 26.04 169.275 26.04H159.395V36.56H169.275ZM186.591 11H189.551V39H186.591V11ZM218.462 36.44V39H198.662V11H217.862V13.56H201.622V23.52H216.102V26.04H201.622V36.44H218.462ZM248.819 11V39H246.379L228.379 16.28V39H225.419V11H227.859L245.899 33.72V11H248.819ZM270.118 39.24C267.345 39.24 264.838 38.6267 262.598 37.4C260.385 36.1733 258.638 34.48 257.358 32.32C256.105 30.1333 255.478 27.6933 255.478 25C255.478 22.3067 256.105 19.88 257.358 17.72C258.638 15.5333 260.398 13.8267 262.638 12.6C264.878 11.3733 267.385 10.76 270.158 10.76C272.238 10.76 274.158 11.1067 275.918 11.8C277.678 12.4933 279.172 13.5067 280.398 14.84L278.518 16.72C276.332 14.5067 273.572 13.4 270.238 13.4C268.025 13.4 266.012 13.9067 264.198 14.92C262.385 15.9333 260.958 17.32 259.918 19.08C258.905 20.84 258.398 22.8133 258.398 25C258.398 27.1867 258.905 29.16 259.918 30.92C260.958 32.68 262.385 34.0667 264.198 35.08C266.012 36.0933 268.025 36.6 270.238 36.6C273.598 36.6 276.358 35.48 278.518 33.24L280.398 35.12C279.172 36.4533 277.665 37.48 275.878 38.2C274.118 38.8933 272.198 39.24 270.118 39.24ZM306.508 36.44V39H286.708V11H305.908V13.56H289.668V23.52H304.148V26.04H289.668V36.44H306.508Z" fill="url(#paint1_linear)"/>
<defs>
<linearGradient id="paint0_linear" x1="37" y1="0" x2="37" y2="45" gradientUnits="userSpaceOnUse">
<stop stop-color="#E6A3F7"/>
<stop offset="1" stop-color="#6D90C4"/>
</linearGradient>
<linearGradient id="paint1_linear" x1="197" y1="0" x2="197" y2="49" gradientUnits="userSpaceOnUse">
<stop stop-color="#9061CD"/>
<stop offset="1" stop-color="#3836A3"/>
</linearGradient>
</defs>
</svg>
